<svg width="431" height="242" viewBox="0 0 431 242" fill="none" xmlns="http://www.w3.org/2000/svg">
<path d="M0.100098 240.8V185.6H54.5001V194.1H8.6001V232.2H54.6001V240.8H0.100098Z" fill="#0C0C0C"/>
<path d="M52.4001 209.2H17.1001V218.1H52.4001V209.2Z" fill="#0C0C0C"/>
<path d="M93.3 241.6C72.4 241.6 63.5 234.1 63.5 216.5V185.6H72.3V216.5C72.3 228.7 78.1 233.2 93.6 233.2C109.1 233.2 114.9 228.7 114.9 216.5V185.6H123.2V216.5C123.2 234.1 114.3 241.6 93.3 241.6Z" fill="#0C0C0C"/>
<path d="M133.5 240.8V185.6H142V232.2H185.4V240.8H133.5Z" fill="#0C0C0C"/>
<path d="M246.1 208.6H210.8V217.5H246.1V208.6Z" fill="#0C0C0C"/>
<path d="M193.8 240.8V185.6H248.2V194.1H202.2V232.2H248.2V240.8H193.8Z" fill="#0C0C0C"/>
<path d="M306.4 240.8L295.9 225.1H275.1V216.8H298C305.4 216.8 309.5 212.5 309.5 204.8C309.5 197.1 305.7 194.2 298 194.2H266.5V240.9H258V185.7H297.9C310.1 185.7 317.8 193.3 317.8 205.6C317.8 217.9 313.9 220.6 307.1 223.5L305.8 224.1L316.8 240.9H306.3L306.4 240.8Z" fill="#0C0C0C"/>
<path d="M402.9 240.8L376.7 196.8L350.7 240.8H341L374.6 184.8H379.5L413.2 240.8H402.9Z" fill="#0C0C0C"/>
<path d="M430.2 185.6H421.7V240.8H430.2V185.6Z" fill="#0C0C0C"/>
<path d="M258.4 63.4C251 54.3 240.4 51.9 229.3 52.8C223.5 53.3 217.8 52.8 212.4 50.8C199.4 46 198.3 33.8 206.3 25.5C210.3 21.3 215.8 21.7 221.1 23.1C225.4 24.3 229.3 26.3 232.9 29.1C238.5 33.6 245 35.4 251.6 32C258.3 28.6 262.2 22.5 260.5 14C258.7 4.69997 249.4 -0.600034 240.5 1.49997C236.5 2.39997 233.4 4.89997 230.9 7.99997C228 11.7 224.7 15 220.3 16.8C215.2 18.9 210.2 18.3 205.3 16.1C201.6 14.4 199 11.5 196 8.89996C192.4 5.69996 188.7 2.69997 183.8 1.49997C176.9 -0.300034 170.5 0.699966 164.2 3.99997C155 8.79997 150.3 20.6 152.4 30.2C154.1 37.9 158.5 43.5 165.6 47.2C170 49.6 174.7 50.1 179.5 50C185.4 50 191.2 50.7 196.4 53.8C203 57.6 205.6 63.4 205 70.7C205 71.7 204.8 72.7 204.6 73.7C204.3 75.5 203.6 77.1 202.6 78.5C200.3 81.7 197.3 84.4 193.6 86.5C189 89.1 183.8 89.6 178.5 89.2C173.6 88.8 168.9 87.5 164.5 85.3C161.8 83.9 159.2 82.3 156.5 80.7C150.4 76.9 143.8 76.2 137.1 78.6C134.8 79.5 132.9 80.7 130.6 82.4C120.4 90.6 120.2 106.1 128.7 114.7C135.8 121.9 146.4 123.7 155.2 119.2C159.8 116.9 162.6 113.2 165.3 109.1C172.6 97.9 184 91.3 198.4 94.5C199.5 94.7 200.6 95 201.7 95.4C205.5 96.6 208.7 99 211.4 101.9C215 105.8 219.5 108.8 224.8 110.5C225.8 110.8 226.9 111.1 227.9 111.3C236.2 112.8 243.8 111.3 250.9 106.7C258.4 101.8 263.2 94.7 264.4 86.2C265.6 77.9 263.9 70.2 258.4 63.4ZM236.6 9.59997C241 5.29997 248 5.39997 252.4 9.59997C256.7 13.9 256.7 20.9 252.4 25.2C248 29.5 241 29.4 236.6 25.2C232.2 21 232.3 13.9 236.6 9.59997ZM189.6 37.5C182.6 44.3 171.3 44.3 164.4 37.4C157.5 30.5 157.5 19.3 164.5 12.5C171.5 5.69997 182.8 5.69997 189.7 12.6C196.6 19.5 196.6 30.7 189.6 37.5ZM155.1 111.4C148.5 116.9 138.6 116.1 133 109.5C127.4 102.9 128.3 93.1 134.9 87.6C141.5 82.1 151.4 82.9 157 89.5C162.6 96.1 161.7 105.9 155.1 111.4ZM248.9 98.3C239.9 106.2 226.1 105.4 218.1 96.4C210.1 87.5 211 73.8 220 65.9C229 58 242.8 58.8 250.8 67.8C258.8 76.7 257.9 90.4 248.9 98.3Z" fill="#2274BC"/>
</svg>
