<svg width="431" height="233" viewBox="0 0 431 233" fill="none" xmlns="http://www.w3.org/2000/svg">
<path d="M0.299805 231.4V176.2H54.6997V184.8H8.7998V222.9H54.7998V231.4H0.299805Z" fill="white"/>
<path d="M52.5997 199.9H17.2998V208.8H52.5997V199.9Z" fill="white"/>
<path d="M93.4998 232.2C72.5998 232.2 63.6997 224.7 63.6997 207.1V176.2H72.4998V207.1C72.4998 219.3 78.2998 223.8 93.7998 223.8C109.3 223.8 115.1 219.3 115.1 207.1V176.2H123.4V207.1C123.4 224.7 114.5 232.2 93.4998 232.2Z" fill="white"/>
<path d="M133.7 231.4V176.2H142.2V222.9H185.6V231.4H133.7Z" fill="white"/>
<path d="M246.3 199.2H211V208.1H246.3V199.2Z" fill="white"/>
<path d="M194 231.4V176.2H248.4V184.8H202.4V222.9H248.4V231.4H194Z" fill="white"/>
<path d="M306.6 231.4L296.1 215.7H275.3V207.4H298.2C305.6 207.4 309.7 203.1 309.7 195.4C309.7 187.7 305.9 184.8 298.2 184.8H266.7V231.5H258.3V176.3H298.2C310.4 176.3 318 183.9 318 196.2C318 208.5 314.1 211.2 307.3 214.1L306 214.7L317 231.5H306.5L306.6 231.4Z" fill="white"/>
<path d="M403.1 231.4L376.9 187.4L350.9 231.4H341.2L374.8 175.5H379.7L413.4 231.4H403.1Z" fill="white"/>
<path d="M430.4 176.2H421.9V231.4H430.4V176.2Z" fill="white"/>
<path d="M240.432 58.2482C233.532 49.8482 223.632 47.6482 213.332 48.4482C207.932 48.8482 202.632 48.4482 197.532 46.6482C185.432 42.2482 184.432 30.8482 191.832 23.2482C195.632 19.3482 200.732 19.7482 205.532 21.0482C209.532 22.1482 213.232 23.9482 216.432 26.5482C221.632 30.7482 227.732 32.3482 233.832 29.1482C240.032 25.9482 243.732 20.3482 242.132 12.5482C240.432 3.9482 231.732 -0.951836 223.532 0.948164C219.832 1.84816 216.932 4.04816 214.632 6.94816C211.932 10.3482 208.832 13.3482 204.732 15.0482C200.032 16.9482 195.332 16.4482 190.832 14.3482C187.432 12.7482 184.932 10.1482 182.232 7.64818C178.932 4.64818 175.432 1.94819 170.932 0.848189C164.532 -0.851811 158.532 0.0481768 152.632 3.14818C144.032 7.64818 139.632 18.4482 141.632 27.3482C143.232 34.4482 147.332 39.6482 153.932 43.1482C158.032 45.3482 162.432 45.7482 166.932 45.7482C172.432 45.7482 177.832 46.3482 182.732 49.2482C188.932 52.7482 191.232 58.1482 190.732 64.8482C190.732 65.8482 190.532 66.7482 190.432 67.6482C190.132 69.2482 189.532 70.7482 188.532 72.1482C186.432 75.1482 183.632 77.6482 180.132 79.5482C175.832 81.9482 171.032 82.4482 166.132 82.0482C161.532 81.6482 157.132 80.5482 153.032 78.4482C150.532 77.1482 148.032 75.6482 145.632 74.1482C139.932 70.6482 133.832 69.9482 127.532 72.2482C125.332 73.0482 123.632 74.1482 121.432 75.7482C111.932 83.2482 111.732 97.6482 119.732 105.648C126.332 112.248 136.132 113.948 144.432 109.848C148.732 107.648 151.332 104.348 153.832 100.548C160.632 90.2482 171.232 84.1482 184.632 87.0482C185.632 87.2482 186.632 87.5482 187.632 87.8482C191.132 88.9482 194.132 91.1482 196.632 93.8482C199.932 97.4482 204.232 100.248 209.032 101.848C209.932 102.148 210.932 102.448 211.932 102.648C219.632 104.048 226.732 102.648 233.332 98.3482C240.332 93.8482 244.732 87.2482 245.932 79.4482C247.032 71.7482 245.432 64.6482 240.332 58.3482L240.432 58.2482ZM220.132 8.44816C224.232 4.44816 230.832 4.54816 234.832 8.44816C238.832 12.4482 238.832 18.9482 234.832 22.8482C230.732 26.8482 224.132 26.7482 220.132 22.8482C216.132 18.8482 216.132 12.3482 220.132 8.44816ZM176.332 34.2482C169.832 40.5482 159.332 40.5482 152.832 34.1482C146.332 27.7482 146.432 17.4482 152.932 11.1482C159.432 4.84818 169.932 4.84815 176.432 11.2482C182.932 17.6482 182.832 27.9482 176.332 34.2482ZM144.232 102.648C138.032 107.748 128.832 106.948 123.632 100.848C118.432 94.7482 119.232 85.7482 125.432 80.6482C131.632 75.5482 140.832 76.3482 146.032 82.4482C151.232 88.5482 150.432 97.5482 144.232 102.648ZM232.432 89.7482C224.432 97.5482 211.532 97.4482 203.632 89.6482C195.732 81.8482 195.832 69.1482 203.732 61.4482C211.632 53.7482 224.632 53.7482 232.532 61.5482C240.432 69.3482 240.332 82.0482 232.432 89.7482Z" fill="white"/>
</svg>
